<?xml version="1.0" encoding="utf-8"?>
<!-- Generator: Adobe Illustrator 18.0.0, SVG Export Plug-In . SVG Version: 6.00 Build 0)  -->
<!DOCTYPE svg PUBLIC "-//W3C//DTD SVG 1.1//EN" "http://www.w3.org/Graphics/SVG/1.1/DTD/svg11.dtd">
<svg version="1.1" id="Layer_1" xmlns="http://www.w3.org/2000/svg" xmlns:xlink="http://www.w3.org/1999/xlink" x="0px" y="0px"
	 width="1400px" height="980px" viewBox="0 0 1400 980" enable-background="new 0 0 1400 980" xml:space="preserve">
<g>
	<path fill="#FACF5A" d="M208.1,446.3c-11,0-22.1-1.3-33.2-3.8c-37.6-8.8-69.5-31.6-89.8-64.3c-17.9-28.8-25.1-63.3-20.2-96.9
		l18.1,2.6c-4.3,29.4,2,59.4,17.7,84.6c17.8,28.6,45.6,48.5,78.5,56.2c32.8,7.7,66.7,2.1,95.2-15.7c28.6-17.8,48.5-45.6,56.2-78.5
		c7.7-32.8,2.1-66.7-15.7-95.2c-36.7-59.1-114.6-77.2-173.7-40.5l-9.7-15.5c67.6-42,156.8-21.2,198.9,46.4
		c20.3,32.7,26.7,71.4,17.9,109c-8.8,37.6-31.6,69.5-64.3,89.8C260.9,438.9,234.8,446.3,208.1,446.3z"/>
	<path fill="#F26D7C" d="M207.8,420.3c-65.3,0-118.4-53.1-118.4-118.4s53.1-118.4,118.4-118.4s118.4,53.1,118.4,118.4h-18.3
		c0-55.2-44.9-100.1-100.1-100.1s-100.1,44.9-100.1,100.1S152.6,402,207.8,402V420.3z"/>
	<path fill="#56E3B1" d="M207.7,394.3c-42.5,0-80.8-29.5-90.2-72.7c-4.6-21.3-1.6-43.6,8.7-62.9l16.2,8.6
		c-8.2,15.5-10.7,33.4-7,50.4c8.7,39.9,48.2,65.3,88.1,56.6c39.9-8.7,65.3-48.2,56.6-88.1c-8.7-39.9-48.2-65.3-88.1-56.6l-3.9-17.9
		c49.7-10.8,99,20.8,109.9,70.5c10.8,49.7-20.8,99-70.5,109.9C220.8,393.6,214.2,394.3,207.7,394.3z"/>
	<path fill="#00A0B9" d="M163.9,351.6c-27.4-24.2-30-66.2-5.8-93.6c24.2-27.4,66.2-30,93.6-5.8c27.4,24.2,30,66.2,5.8,93.6
		l-13.7-12.1c17.5-19.8,15.6-50.2-4.2-67.8c-9.6-8.5-21.9-12.7-34.7-11.9c-12.8,0.8-24.5,6.5-33,16.1c-8.5,9.6-12.7,21.9-11.9,34.7
		c0.8,12.8,6.5,24.5,16.1,33L163.9,351.6z"/>
</g>
<g>
	<path fill="#444854" d="M541.9,363.6c-34,0-61.6-27.7-61.6-61.6c0-34,27.7-61.6,61.6-61.6c34,0,61.6,27.7,61.6,61.6
		C603.5,336,575.8,363.6,541.9,363.6z"/>
	<g>
		<path fill="#56E3B1" d="M617.7,302c0,19.6-7.5,37.5-19.7,50.9l48.5,48.5c24.6-25.9,39.7-60.9,39.7-99.4s-15.1-73.5-39.7-99.4
			L598,251.1C610.2,264.5,617.7,282.4,617.7,302z"/>
		<path fill="#FACF5A" d="M466,302c0-19.6,7.5-37.5,19.7-50.9l-48.5-48.5c-24.6,25.9-39.7,60.9-39.7,99.4
			c0,38.5,15.1,73.5,39.7,99.4l48.5-48.5C473.5,339.4,466,321.6,466,302z"/>
		<path fill="#F26D7C" d="M490.9,245.8c13.5-12.2,31.3-19.7,50.9-19.7c19.6,0,37.5,7.5,50.9,19.7l48.5-48.5
			c-25.9-24.6-60.9-39.7-99.4-39.7c-38.5,0-73.5,15.1-99.4,39.7L490.9,245.8z"/>
		<path fill="#00A0B9" d="M592.8,358.1c-13.5,12.2-31.3,19.7-50.9,19.7c-19.6,0-37.5-7.5-50.9-19.7l-48.5,48.5
			c25.9,24.6,60.9,39.7,99.4,39.7c38.5,0,73.5-15.1,99.4-39.7L592.8,358.1z"/>
	</g>
</g>
<g>
	<path fill="#56E3B1" d="M327,752.3c11.3-20,17.8-43.2,17.8-67.8c0-42.2-18.9-79.9-48.7-105.2c-39.4,46.2-85.6,100.3-89.3,105.2
		L327,752.3z"/>
	<path fill="#FACF5A" d="M137.7,565c-41.2,23.9-68.8,68.4-68.8,119.4c0,62.1,41,114.5,97.3,131.9l40.6-131.9L137.7,565z"/>
	<path fill="#F26D7C" d="M296.1,579.2c-24.1-20.4-55.2-32.8-89.3-32.8c-25.2,0-48.8,6.8-69.1,18.5l69.1,119.4
		C210.6,679.6,256.7,625.4,296.1,579.2z"/>
	<path fill="#00A0B9" d="M327,752.3l-120.2-67.8l-40.6,131.9c12.9,4,26.5,6.1,40.6,6.1C258.4,822.4,303.3,794.1,327,752.3z"/>
</g>
<g>
	<circle fill="#FACF5A" cx="541.9" cy="679.4" r="69.4"/>
	<circle fill="#FACF5A" cx="541.9" cy="551.4" r="15.1"/>
	<circle fill="#F26D7C" cx="541.9" cy="807.3" r="15.1"/>
	<circle fill="#FACF5A" cx="502.3" cy="557.7" r="15.1"/>
	<circle fill="#F26D7C" cx="581.4" cy="801.1" r="15.1"/>
	<circle fill="#FACF5A" cx="466.7" cy="575.9" r="15.1"/>
	<circle fill="#F26D7C" cx="617.1" cy="782.9" r="15.1"/>
	<circle fill="#F26D7C" cx="438.3" cy="604.2" r="15.1"/>
	<circle fill="#F26D7C" cx="645.4" cy="754.6" r="15.1"/>
	<circle fill="#F26D7C" cx="420.2" cy="639.9" r="15.1"/>
	<circle fill="#F26D7C" cx="663.5" cy="718.9" r="15.1"/>
	<circle fill="#F26D7C" cx="413.9" cy="679.4" r="15.1"/>
	<circle fill="#F26D7C" cx="669.8" cy="679.4" r="15.1"/>
	<circle fill="#F26D7C" cx="420.2" cy="718.9" r="15.1"/>
	<circle fill="#F26D7C" cx="663.5" cy="639.9" r="15.1"/>
	<circle fill="#F26D7C" cx="438.3" cy="754.6" r="15.1"/>
	<circle fill="#F26D7C" cx="645.4" cy="604.2" r="15.1"/>
	<circle fill="#F26D7C" cx="466.7" cy="782.9" r="15.1"/>
	<circle fill="#F26D7C" cx="617.1" cy="575.9" r="15.1"/>
	<circle fill="#F26D7C" cx="502.3" cy="801.1" r="15.1"/>
	<circle fill="#FACF5A" cx="581.4" cy="557.7" r="15.1"/>
	<path fill="#F26D7C" d="M541.9,779.8c-55.3,0-100.4-45-100.4-100.4S486.5,579,541.9,579s100.4,45,100.4,100.4
		S597.2,779.8,541.9,779.8z M541.9,583c-53.1,0-96.4,43.2-96.4,96.4s43.2,96.4,96.4,96.4s96.4-43.2,96.4-96.4S595,583,541.9,583z"/>
	<g>
		<path fill="#F26D7C" d="M518.2,667.7c2.2,0,4,0.5,5.3,1.5c1.3,1,2,2.3,2,4c0,1.2-0.3,2.2-1,3.1c-0.6,0.9-1.7,1.7-3.1,2.4
			c1.7,0.9,2.9,1.9,3.7,2.9c0.7,1,1.1,2.1,1.1,3.3c0,1.9-0.7,3.4-2.2,4.5c-1.5,1.1-3.4,1.7-5.8,1.7c-2.5,0-4.5-0.5-5.9-1.6
			c-1.4-1.1-2.1-2.6-2.1-4.5c0-1.3,0.3-2.5,1-3.5c0.7-1,1.8-1.9,3.3-2.7c-1.3-0.8-2.2-1.7-2.8-2.6c-0.6-0.9-0.9-2-0.9-3.1
			c0-1.6,0.7-3,2-4C514.3,668.2,516.1,667.7,518.2,667.7z M514.7,684.8c0,0.9,0.3,1.6,0.9,2.1c0.6,0.5,1.5,0.8,2.6,0.8
			c1.2,0,2.1-0.3,2.7-0.8c0.6-0.5,0.9-1.2,0.9-2c0-0.7-0.3-1.4-0.9-2c-0.6-0.6-1.5-1.3-2.9-1.9C515.8,681.9,514.7,683.2,514.7,684.8
			z M518.2,671.2c-0.8,0-1.5,0.2-2,0.6c-0.5,0.4-0.8,1-0.8,1.7c0,0.6,0.2,1.2,0.6,1.7c0.4,0.5,1.1,1,2.2,1.5c1-0.5,1.7-1,2.1-1.5
			c0.4-0.5,0.6-1.1,0.6-1.7c0-0.7-0.3-1.3-0.8-1.7C519.7,671.4,519,671.2,518.2,671.2z"/>
		<path fill="#F26D7C" d="M544.5,679.4c0,4-0.7,6.9-2,8.9c-1.3,1.9-3.3,2.9-6,2.9c-2.6,0-4.6-1-6-3c-1.3-2-2-4.9-2-8.8
			c0-4,0.7-7,2-8.9c1.3-1.9,3.3-2.9,6-2.9c2.6,0,4.6,1,6,3C543.8,672.6,544.5,675.6,544.5,679.4z M533.3,679.4c0,2.8,0.2,4.8,0.7,6
			c0.5,1.2,1.3,1.8,2.4,1.8c1.1,0,1.9-0.6,2.4-1.8c0.5-1.2,0.8-3.2,0.8-6c0-2.8-0.3-4.8-0.8-6c-0.5-1.2-1.3-1.8-2.4-1.8
			c-1.1,0-1.9,0.6-2.4,1.8C533.6,674.6,533.3,676.6,533.3,679.4z"/>
		<path fill="#F26D7C" d="M557.5,674.8c0,2.4-0.5,4.2-1.4,5.4c-0.9,1.2-2.3,1.8-4.1,1.8c-1.7,0-3-0.6-4-1.9c-0.9-1.2-1.4-3-1.4-5.4
			c0-4.8,1.8-7.1,5.4-7.1c1.8,0,3.1,0.6,4.1,1.9C557,670.7,557.5,672.5,557.5,674.8z M550.6,674.8c0,1.3,0.1,2.3,0.4,3s0.6,1,1.1,1
			c1,0,1.5-1.3,1.5-3.9c0-2.6-0.5-3.9-1.5-3.9c-0.5,0-0.9,0.3-1.1,1C550.7,672.5,550.6,673.5,550.6,674.8z M568.2,668l-12.7,22.9
			h-3.8l12.7-22.9H568.2z M573.5,683.9c0,2.4-0.5,4.2-1.4,5.4c-0.9,1.2-2.3,1.8-4.1,1.8c-1.7,0-3-0.6-4-1.9c-0.9-1.2-1.4-3-1.4-5.3
			c0-4.8,1.8-7.1,5.4-7.1c1.8,0,3.1,0.6,4.1,1.9C573,679.9,573.5,681.6,573.5,683.9z M566.6,684c0,1.3,0.1,2.3,0.4,3
			c0.2,0.7,0.6,1,1.1,1c1,0,1.5-1.3,1.5-3.9c0-2.6-0.5-3.9-1.5-3.9c-0.5,0-0.9,0.3-1.1,1C566.7,681.7,566.6,682.6,566.6,684z"/>
	</g>
</g>
<g>
	<path fill="#FACF5A" d="M941.7,680c0,25-13.2,46.9-33,59.2l38.3,61.9c40.5-25.1,67.5-70,67.5-121c0-78.5-63.9-142.4-142.4-142.4
		v72.8C910.4,610.4,941.7,641.7,941.7,680z"/>
	<path fill="#56E3B1" d="M802.5,680h-72.8c0,50.9,26.9,95.7,67.2,120.8l38.4-61.8C815.6,726.8,802.5,704.9,802.5,680z"/>
	<path fill="#444854" d="M746.2,613.6l64.4,33.9c11.7-22.1,34.9-37.1,61.5-37.1v-72.8C817.5,537.7,770.1,568.5,746.2,613.6z"/>
	<path fill="#00A0B9" d="M810.5,647.6l-64.4-33.9c-10.5,19.8-16.5,42.4-16.5,66.4h72.8C802.5,668.3,805.4,657.3,810.5,647.6z"/>
	<path fill="#F26D7C" d="M946.9,801.1l-38.3-61.9c-10.6,6.6-23.2,10.4-36.6,10.4c-13.5,0-26.1-3.9-36.8-10.5l-38.4,61.8
		c21.8,13.6,47.6,21.5,75.2,21.5C899.5,822.4,925.2,814.6,946.9,801.1z"/>
</g>
<g>
	<rect x="1188.9" y="541.6" fill="#56E3B1" width="11" height="50.3"/>
	<rect x="1188.9" y="772.1" fill="#00A0B9" width="11" height="50.3"/>
	
		<rect x="1153.2" y="547.2" transform="matrix(0.9511 -0.309 0.309 0.9511 -120.1546 386.0807)" fill="#00A0B9" width="11" height="50.3"/>
	
		<rect x="1224.5" y="766.5" transform="matrix(0.9511 -0.309 0.309 0.9511 -184.426 418.8286)" fill="#00A0B9" width="11" height="50.3"/>
	
		<rect x="1121.1" y="563.6" transform="matrix(0.809 -0.5878 0.5878 0.809 -130.8847 774.6333)" fill="#00A0B9" width="11" height="50.3"/>
	
		<rect x="1256.6" y="750.1" transform="matrix(0.809 -0.5878 0.5878 0.809 -214.6386 889.9107)" fill="#00A0B9" width="11" height="50.3"/>
	
		<rect x="1095.6" y="589.1" transform="matrix(0.5878 -0.809 0.809 0.5878 -43.0363 1143.9976)" fill="#00A0B9" width="11" height="50.3"/>
	
		<rect x="1282.1" y="724.6" transform="matrix(0.5878 -0.809 0.809 0.5878 -75.7842 1350.7596)" fill="#56E3B1" width="11" height="50.3"/>
	
		<rect x="1079.2" y="621.2" transform="matrix(0.309 -0.9511 0.9511 0.309 134.7915 1478.257)" fill="#00A0B9" width="11" height="50.3"/>
	
		<rect x="1298.5" y="692.5" transform="matrix(0.309 -0.9511 0.9511 0.309 218.5454 1736.025)" fill="#56E3B1" width="11" height="50.3"/>
	<rect x="1053.9" y="676.5" fill="#00A0B9" width="50.3" height="11"/>
	<rect x="1284.5" y="676.5" fill="#56E3B1" width="50.3" height="11"/>
	
		<rect x="1079.2" y="692.5" transform="matrix(-0.309 -0.9511 0.9511 -0.309 737.4263 1970.9945)" fill="#00A0B9" width="11" height="50.3"/>
	
		<rect x="1298.5" y="621.2" transform="matrix(-0.309 -0.9511 0.9511 -0.309 1092.2135 2086.272)" fill="#56E3B1" width="11" height="50.3"/>
	
		<rect x="1095.6" y="724.6" transform="matrix(-0.5878 -0.809 0.809 -0.5878 1141.7404 2081.2402)" fill="#00A0B9" width="11" height="50.3"/>
	
		<rect x="1282.1" y="589.1" transform="matrix(-0.5878 -0.809 0.809 -0.5878 1547.5337 2016.9689)" fill="#56E3B1" width="11" height="50.3"/>
	
		<rect x="1121.1" y="750.1" transform="matrix(-0.809 -0.5878 0.5878 -0.809 1582.3502 2064.637)" fill="#00A0B9" width="11" height="50.3"/>
	
		<rect x="1256.6" y="563.6" transform="matrix(-0.809 -0.5878 0.5878 -0.809 1937.1376 1806.869)" fill="#56E3B1" width="11" height="50.3"/>
	
		<rect x="1153.2" y="766.5" transform="matrix(-0.9511 -0.309 0.309 -0.9511 2016.125 1902.5712)" fill="#00A0B9" width="11" height="50.3"/>
	
		<rect x="1224.5" y="547.2" transform="matrix(-0.9511 -0.309 0.309 -0.9511 2222.887 1496.778)" fill="#56E3B1" width="11" height="50.3"/>
	<circle fill="#F26D7C" cx="1194.4" cy="682" r="75.4"/>
	<g>
		<path fill="#FFFFFF" d="M1154.8,681.1c0-5.7,1.2-9.9,3.6-12.7c2.4-2.8,6-4.2,10.8-4.2c1.6,0,2.9,0.1,3.8,0.3v4.8
			c-1.2-0.3-2.3-0.4-3.5-0.4c-2.1,0-3.8,0.3-5.1,0.9c-1.3,0.6-2.3,1.6-3,2.8s-1,3-1.2,5.2h0.3c1.3-2.2,3.4-3.3,6.2-3.3
			c2.6,0,4.6,0.8,6,2.4c1.5,1.6,2.2,3.8,2.2,6.7c0,3.1-0.9,5.5-2.6,7.3c-1.7,1.8-4.1,2.7-7.2,2.7c-2.1,0-4-0.5-5.5-1.5
			c-1.6-1-2.8-2.4-3.6-4.3C1155.2,686.1,1154.8,683.8,1154.8,681.1z M1165.1,688.9c1.3,0,2.3-0.4,3-1.3c0.7-0.9,1-2.1,1-3.7
			c0-1.4-0.3-2.5-1-3.3s-1.6-1.2-2.9-1.2c-1.2,0-2.3,0.4-3.1,1.2s-1.3,1.7-1.3,2.8c0,1.6,0.4,2.9,1.2,3.9S1163.9,688.9,1165.1,688.9
			z"/>
		<path fill="#FFFFFF" d="M1197.8,679c0,5-0.8,8.7-2.5,11.1c-1.6,2.4-4.2,3.6-7.6,3.6c-3.3,0-5.8-1.2-7.5-3.7
			c-1.7-2.5-2.5-6.1-2.5-11c0-5.1,0.8-8.8,2.5-11.2c1.6-2.4,4.1-3.6,7.5-3.6c3.3,0,5.8,1.3,7.5,3.8S1197.8,674.1,1197.8,679z
			 M1183.7,679c0,3.5,0.3,6,0.9,7.6s1.6,2.3,3.1,2.3c1.4,0,2.4-0.8,3.1-2.3s0.9-4.1,0.9-7.5c0-3.5-0.3-6-1-7.6s-1.7-2.3-3-2.3
			c-1.4,0-2.4,0.8-3.1,2.3S1183.7,675.5,1183.7,679z"/>
		<path fill="#FFFFFF" d="M1214,673.2c0,3-0.6,5.3-1.7,6.8c-1.2,1.5-2.9,2.3-5.1,2.3c-2.2,0-3.8-0.8-5-2.3c-1.2-1.5-1.8-3.8-1.8-6.7
			c0-6,2.3-9,6.8-9c2.2,0,3.9,0.8,5.1,2.3C1213.5,668.1,1214,670.3,1214,673.2z M1205.4,673.2c0,1.7,0.1,2.9,0.4,3.7
			c0.3,0.8,0.8,1.2,1.4,1.2c1.3,0,1.9-1.6,1.9-4.9c0-3.3-0.6-4.9-1.9-4.9c-0.7,0-1.1,0.4-1.4,1.2S1205.4,671.6,1205.4,673.2z
			 M1227.5,664.7l-15.9,28.7h-4.7l15.9-28.7H1227.5z M1234.1,684.6c0,3-0.6,5.2-1.7,6.8c-1.2,1.5-2.9,2.3-5.1,2.3
			c-2.2,0-3.8-0.8-5-2.3c-1.2-1.5-1.8-3.8-1.8-6.7c0-6,2.3-9,6.8-9c2.2,0,3.9,0.8,5.1,2.3C1233.5,679.6,1234.1,681.8,1234.1,684.6z
			 M1225.4,684.7c0,1.7,0.1,2.9,0.4,3.7s0.8,1.2,1.4,1.2c1.3,0,1.9-1.6,1.9-4.9c0-3.3-0.6-4.9-1.9-4.9c-0.7,0-1.1,0.4-1.4,1.2
			S1225.4,683,1225.4,684.7z"/>
	</g>
</g>
<g>
	<path fill="#EDEDED" d="M1192.2,446.3c-79.6,0-144.4-64.8-144.4-144.4s64.8-144.4,144.4-144.4s144.4,64.8,144.4,144.4
		S1271.8,446.3,1192.2,446.3z M1192.2,161.6c-77.4,0-140.4,63-140.4,140.4s63,140.4,140.4,140.4s140.4-63,140.4-140.4
		S1269.6,161.6,1192.2,161.6z"/>
	<path fill="#EDEDED" d="M1192.2,216.8c-47,0-85.1,38.2-85.1,85.1c0,47,38.2,85.1,85.1,85.1s85.1-38.2,85.1-85.1
		C1277.4,255,1239.2,216.8,1192.2,216.8z"/>
	<g>
		<circle fill="#F26D7C" cx="1080.6" cy="282.3" r="13.4"/>
		<circle fill="#F26D7C" cx="1080.6" cy="321.7" r="13.4"/>
		<circle fill="#F26D7C" cx="1192.2" cy="188.6" r="13.4"/>
		<circle fill="#F26D7C" cx="1192.2" cy="415.3" r="13.4"/>
		<circle fill="#F26D7C" cx="1153.4" cy="195.5" r="13.4"/>
		<circle fill="#F26D7C" cx="1231" cy="408.5" r="13.4"/>
		<circle fill="#F26D7C" cx="1119.3" cy="215.1" r="13.4"/>
		<circle fill="#F26D7C" cx="1265.1" cy="388.8" r="13.4"/>
		<circle fill="#F26D7C" cx="1094" cy="245.3" r="13.4"/>
		<circle fill="#F26D7C" cx="1290.4" cy="358.6" r="13.4"/>
		<circle fill="#F26D7C" cx="1303.8" cy="321.7" r="13.4"/>
		<circle fill="#F26D7C" cx="1303.8" cy="282.3" r="13.4"/>
		<circle fill="#F26D7C" cx="1094" cy="358.6" r="13.4"/>
		<circle fill="#F26D7C" cx="1119.3" cy="388.8" r="13.4"/>
		<circle fill="#F26D7C" cx="1153.4" cy="408.5" r="13.4"/>
	</g>
	<g>
		<path fill="#444854" d="M1153.5,321.7l11.4-25h-15v-5.4h21.8v4l-11.5,26.4H1153.5z"/>
		<path fill="#444854" d="M1185.9,302.2c2.9,0,5.3,0.8,7,2.5c1.7,1.7,2.6,3.9,2.6,6.8c0,3.4-1,6-3.1,7.8s-5.1,2.7-9,2.7
			c-3.4,0-6.1-0.5-8.2-1.6v-5.6c1.1,0.6,2.4,1.1,3.8,1.4s2.8,0.6,4.1,0.6c3.9,0,5.9-1.6,5.9-4.8c0-3.1-2-4.6-6.1-4.6
			c-0.7,0-1.5,0.1-2.4,0.2c-0.9,0.1-1.6,0.3-2.2,0.5l-2.6-1.4l1.1-15.5h16.5v5.5h-10.9l-0.6,6l0.7-0.1
			C1183.6,302.3,1184.6,302.2,1185.9,302.2z"/>
		<path fill="#444854" d="M1213.2,300.3c0,3.2-0.6,5.6-1.9,7.2s-3,2.4-5.4,2.4c-2.3,0-4.1-0.8-5.3-2.5s-1.9-4-1.9-7.1
			c0-6.3,2.4-9.5,7.2-9.5c2.3,0,4.1,0.8,5.4,2.5S1213.2,297.2,1213.2,300.3z M1204,300.3c0,1.8,0.2,3.1,0.5,3.9
			c0.3,0.9,0.8,1.3,1.5,1.3c1.3,0,2-1.7,2-5.2c0-3.5-0.7-5.2-2-5.2c-0.7,0-1.2,0.4-1.5,1.3C1204.1,297.3,1204,298.6,1204,300.3z
			 M1227.5,291.2l-16.9,30.4h-5l16.9-30.4H1227.5z M1234.5,312.5c0,3.2-0.6,5.6-1.9,7.2s-3,2.4-5.4,2.4c-2.3,0-4.1-0.8-5.3-2.5
			s-1.9-4-1.9-7.1c0-6.3,2.4-9.5,7.2-9.5c2.3,0,4.1,0.8,5.4,2.5S1234.5,309.4,1234.5,312.5z M1225.3,312.5c0,1.8,0.2,3.1,0.5,3.9
			c0.3,0.9,0.8,1.3,1.5,1.3c1.3,0,2-1.7,2-5.2c0-3.5-0.7-5.2-2-5.2c-0.7,0-1.2,0.4-1.5,1.3S1225.3,310.7,1225.3,312.5z"/>
	</g>
</g>
<g>
	<path fill="#00A0B9" d="M869.8,446.3c-79.6,0-144.4-64.8-144.4-144.4s64.8-144.4,144.4-144.4s144.4,64.8,144.4,144.4
		S949.4,446.3,869.8,446.3z M869.8,161.6c-77.4,0-140.4,63-140.4,140.4s63,140.4,140.4,140.4s140.4-63,140.4-140.4
		S947.2,161.6,869.8,161.6z"/>
	<path fill="#F26D7C" d="M869.8,435.6c-73.7,0-133.6-60-133.6-133.6h30c0,57.1,46.5,103.6,103.6,103.6S973.4,359.1,973.4,302
		c0-57.1-46.5-103.6-103.6-103.6v-30c73.7,0,133.6,60,133.6,133.6C1003.4,375.7,943.5,435.6,869.8,435.6z"/>
	<path fill="#FACF5A" d="M869.8,385.1c-45.8,0-83.1-37.3-83.1-83.1s37.3-83.1,83.1-83.1s83.1,37.3,83.1,83.1
		S915.6,385.1,869.8,385.1z"/>
	<g>
		<path fill="#F26D7C" d="M831.1,317.2l11.4-25h-15v-5.4h21.8v4l-11.5,26.4H831.1z"/>
		<path fill="#F26D7C" d="M863.4,297.8c2.9,0,5.3,0.8,7,2.5c1.7,1.7,2.6,3.9,2.6,6.8c0,3.4-1,6-3.1,7.8s-5.1,2.7-9,2.7
			c-3.4,0-6.1-0.5-8.2-1.6v-5.6c1.1,0.6,2.4,1.1,3.8,1.4s2.8,0.6,4.1,0.6c3.9,0,5.9-1.6,5.9-4.8c0-3.1-2-4.6-6.1-4.6
			c-0.7,0-1.5,0.1-2.4,0.2c-0.9,0.1-1.6,0.3-2.2,0.5l-2.6-1.4l1.1-15.5H871v5.5h-10.9l-0.6,6l0.7-0.1
			C861.1,297.9,862.2,297.8,863.4,297.8z"/>
		<path fill="#F26D7C" d="M890.8,295.8c0,3.2-0.6,5.6-1.9,7.2s-3,2.4-5.4,2.4c-2.3,0-4.1-0.8-5.3-2.5s-1.9-4-1.9-7.1
			c0-6.3,2.4-9.5,7.2-9.5c2.3,0,4.1,0.8,5.4,2.5S890.8,292.8,890.8,295.8z M881.6,295.9c0,1.8,0.2,3.1,0.5,3.9
			c0.3,0.9,0.8,1.3,1.5,1.3c1.3,0,2-1.7,2-5.2c0-3.5-0.7-5.2-2-5.2c-0.7,0-1.2,0.4-1.5,1.3C881.7,292.8,881.6,294.1,881.6,295.9z
			 M905.1,286.8l-16.9,30.4h-5l16.9-30.4H905.1z M912.1,308c0,3.2-0.6,5.6-1.9,7.2s-3,2.4-5.4,2.4c-2.3,0-4.1-0.8-5.3-2.5
			s-1.9-4-1.9-7.1c0-6.3,2.4-9.5,7.2-9.5c2.3,0,4.1,0.8,5.4,2.5S912.1,304.9,912.1,308z M902.9,308c0,1.8,0.2,3.1,0.5,3.9
			c0.3,0.9,0.8,1.3,1.5,1.3c1.3,0,2-1.7,2-5.2c0-3.5-0.7-5.2-2-5.2c-0.7,0-1.2,0.4-1.5,1.3S902.9,306.3,902.9,308z"/>
	</g>
</g>
</svg>
