<?xml version="1.0" encoding="UTF-8" standalone="no"?>
<svg
   xmlns:dc="http://purl.org/dc/elements/1.1/"
   xmlns:cc="http://creativecommons.org/ns#"
   xmlns:rdf="http://www.w3.org/1999/02/22-rdf-syntax-ns#"
   xmlns:svg="http://www.w3.org/2000/svg"
   xmlns="http://www.w3.org/2000/svg"
   viewBox="0 0 1750 1225"
   height="1225"
   width="1750"
   xml:space="preserve"
   version="1.1"
   id="svg2"><metadata
     id="metadata8"><rdf:RDF><cc:Work
         rdf:about=""><dc:format>image/svg+xml</dc:format><dc:type
           rdf:resource="http://purl.org/dc/dcmitype/StillImage" /></cc:Work></rdf:RDF></metadata><defs
     id="defs6"><clipPath
       id="clipPath18"
       clipPathUnits="userSpaceOnUse"><path
         id="path20"
         d="M 0,980 1400,980 1400,0 0,0 0,980 Z" /></clipPath></defs><g
     transform="matrix(1.25,0,0,-1.25,0,1225)"
     id="g10"><path
       id="path12"
       style="fill:#f1f1f2;fill-opacity:1;fill-rule:nonzero;stroke:none"
       d="m 0,0 1400,0 0,980 L 0,980 0,0 Z" /><g
       id="g14"><g
         clip-path="url(#clipPath18)"
         id="g16"><g
           transform="translate(868.0671,842.4036)"
           id="g22"><path
             id="path24"
             style="fill:#004579;fill-opacity:1;fill-rule:nonzero;stroke:none"
             d="m 0,0 0,-41.714 39.156,0 0,-25.915 -39.156,0 0,-42.336 c 0,-9.566 0.494,-15.704 1.511,-18.421 1.017,-2.709 2.889,-4.878 5.661,-6.505 3.653,-2.196 7.821,-3.295 12.526,-3.295 8.356,0 16.664,2.732 24.925,8.159 l 0,-26.033 c -7.048,-3.328 -13.438,-5.659 -19.155,-6.998 -5.713,-1.334 -11.9,-2.002 -18.546,-2.002 -7.538,0 -14.202,0.949 -20.005,2.862 -5.804,1.91 -10.748,4.628 -14.843,8.144 -4.093,3.528 -6.932,7.278 -8.512,11.263 -1.58,3.961 -2.37,9.715 -2.37,17.261 l 0,57.901 -18.247,0 0,23.363 c 6.487,2.1 12.047,5.122 16.655,9.05 4.634,3.937 8.344,8.657 11.13,14.174 2.805,5.516 4.732,12.522 5.787,21.042 L 0,0 Z" /></g><g
           transform="translate(857.2433,853.2273)"
           id="g26"><path
             id="path28"
             style="fill:none;stroke:#000000;stroke-width:5;stroke-linecap:round;stroke-linejoin:round;stroke-miterlimit:10;stroke-dasharray:none;stroke-opacity:1"
             d="m 0,0 0,-41.714 39.156,0 0,-25.915 -39.156,0 0,-42.336 c 0,-9.566 0.494,-15.704 1.511,-18.421 1.017,-2.709 2.889,-4.878 5.661,-6.506 3.653,-2.195 7.821,-3.294 12.526,-3.294 8.356,0 16.664,2.732 24.926,8.158 l 0,-26.032 c -7.049,-3.328 -13.439,-5.66 -19.156,-6.998 -5.713,-1.334 -11.9,-2.002 -18.546,-2.002 -7.538,0 -14.202,0.948 -20.005,2.862 -5.803,1.91 -10.747,4.628 -14.843,8.144 -4.093,3.528 -6.931,7.278 -8.512,11.262 -1.58,3.962 -2.37,9.716 -2.37,17.261 l 0,57.902 -18.247,0 0,23.363 c 6.487,2.099 12.047,5.122 16.655,9.05 4.635,3.937 8.344,8.657 11.131,14.174 2.805,5.516 4.731,12.523 5.786,21.042 L 0,0 Z" /></g><g
           transform="translate(1270.153,802.8254)"
           id="g30"><path
             id="path32"
             style="fill:#89d6f2;fill-opacity:1;fill-rule:nonzero;stroke:none"
             d="m 0,0 c -0.807,-18.008 -13.414,-42.629 -37.727,-73.858 -25.173,-32.668 -46.499,-48.987 -63.92,-48.987 -10.778,0 -19.91,9.928 -27.372,29.861 -4.998,18.272 -9.964,36.546 -14.95,54.778 -5.549,19.943 -11.49,29.892 -17.845,29.892 -1.384,0 -6.209,-2.902 -14.522,-8.715 l -8.707,11.214 c 9.121,8.005 18.115,16.041 26.979,24.046 12.15,10.523 21.283,16.04 27.384,16.615 14.362,1.392 23.23,-8.431 26.566,-29.455 3.561,-22.698 6.07,-36.814 7.452,-42.342 4.156,-18.816 8.704,-28.203 13.692,-28.203 3.858,0 9.674,6.071 17.421,18.241 7.753,12.184 11.887,21.444 12.449,27.82 1.108,10.514 -3.039,15.743 -12.449,15.743 -4.421,0 -8.99,-0.933 -13.69,-2.9 9.142,29.604 26.566,43.999 52.292,43.157 C -7.879,36.364 1.116,24.046 0,0" /></g><g
           transform="translate(1259.3292,813.6492)"
           id="g34"><path
             id="path36"
             style="fill:none;stroke:#000000;stroke-width:5;stroke-linecap:round;stroke-linejoin:round;stroke-miterlimit:10;stroke-dasharray:none;stroke-opacity:1"
             d="m 0,0 c -0.807,-18.008 -13.414,-42.63 -37.727,-73.858 -25.173,-32.668 -46.499,-48.987 -63.92,-48.987 -10.778,0 -19.91,9.928 -27.372,29.861 -4.998,18.272 -9.964,36.546 -14.95,54.778 -5.548,19.943 -11.49,29.891 -17.845,29.891 -1.384,0 -6.208,-2.901 -14.522,-8.714 l -8.707,11.214 c 9.121,8.005 18.115,16.041 26.979,24.045 12.15,10.524 21.283,16.041 27.384,16.615 14.362,1.393 23.23,-8.43 26.566,-29.454 3.561,-22.698 6.07,-36.815 7.452,-42.342 4.156,-18.817 8.704,-28.203 13.692,-28.203 3.858,0 9.674,6.071 17.421,18.241 7.753,12.184 11.888,21.444 12.45,27.819 1.107,10.515 -3.04,15.744 -12.45,15.744 -4.421,0 -8.989,-0.933 -13.69,-2.9 9.142,29.604 26.566,43.999 52.292,43.157 C -7.879,36.364 1.117,24.046 0,0" /></g><g
           transform="translate(179.8932,792.8108)"
           id="g38"><path
             id="path40"
             style="fill:#0b63b5;fill-opacity:1;fill-rule:nonzero;stroke:none"
             d="m 0,0 21.555,0 0,19.544 c 0,8.621 0.233,21.912 6.943,30.141 7.072,8.724 16.774,14.653 33.465,14.653 27.193,0 38.644,-3.618 38.644,-3.618 L 95.22,30.924 c 0,0 -8.987,2.423 -17.367,2.423 -8.386,0 -15.89,-2.803 -15.89,-10.622 l 0,-22.725 34.378,0 -2.402,-29.106 -31.976,0 0,-101.105 -40.408,0 0,101.105 L 0,-29.106 0,0 Z" /></g><g
           transform="translate(169.0695,803.6345)"
           id="g42"><path
             id="path44"
             style="fill:none;stroke:#000000;stroke-width:5;stroke-linecap:round;stroke-linejoin:round;stroke-miterlimit:10;stroke-dasharray:none;stroke-opacity:1"
             d="m 0,0 21.555,0 0,19.543 c 0,8.622 0.233,21.913 6.943,30.143 7.072,8.723 16.775,14.652 33.466,14.652 27.192,0 38.643,-3.618 38.643,-3.618 L 95.22,30.924 c 0,0 -8.987,2.423 -17.367,2.423 -8.386,0 -15.889,-2.803 -15.889,-10.622 l 0,-22.725 34.377,0 -2.402,-29.106 -31.975,0 0,-101.105 -40.409,0 0,101.105 L 0,-29.106 0,0 Z" /></g><g
           transform="translate(630.2516,812.1184)"
           id="g46"><path
             id="path48"
             style="fill:#92d0f9;fill-opacity:1;fill-rule:nonzero;stroke:none"
             d="m 0,0 c -6.201,-2.749 -12.865,-4.607 -19.852,-5.441 7.137,4.278 12.625,11.046 15.197,19.12 -6.668,-3.961 -14.063,-6.841 -21.937,-8.393 -6.309,6.723 -15.296,10.917 -25.234,10.917 -19.087,0 -34.561,-15.475 -34.561,-34.561 0,-2.713 0.304,-5.344 0.89,-7.873 -28.72,1.436 -54.182,15.195 -71.232,36.115 -2.972,-5.115 -4.678,-11.047 -4.678,-17.382 0,-11.984 6.099,-22.572 15.37,-28.766 -5.662,0.175 -10.99,1.741 -15.652,4.324 l 0,-0.434 c 0,-16.743 11.916,-30.714 27.721,-33.889 -2.897,-0.785 -5.958,-1.218 -9.108,-1.218 -2.22,0 -4.393,0.223 -6.497,0.627 4.395,-13.735 17.156,-23.719 32.279,-24.006 -11.821,-9.27 -26.723,-14.794 -42.924,-14.794 -2.786,0 -5.536,0.167 -8.238,0.482 15.293,-9.796 33.46,-15.519 52.986,-15.519 63.566,0 98.328,52.653 98.328,98.33 0,1.492 -0.042,2.984 -0.095,4.476 C -10.497,-13.021 -4.644,-6.932 0,0" /></g><g
           transform="translate(619.4279,822.9421)"
           id="g50"><path
             id="path52"
             style="fill:none;stroke:#000000;stroke-width:5;stroke-linecap:round;stroke-linejoin:round;stroke-miterlimit:10;stroke-dasharray:none;stroke-opacity:1"
             d="m 0,0 c -6.2,-2.749 -12.865,-4.607 -19.852,-5.441 7.137,4.278 12.625,11.046 15.197,19.12 -6.668,-3.961 -14.063,-6.841 -21.937,-8.393 -6.309,6.723 -15.296,10.917 -25.234,10.917 -19.087,0 -34.561,-15.475 -34.561,-34.561 0,-2.713 0.304,-5.344 0.89,-7.873 -28.72,1.436 -54.182,15.195 -71.232,36.115 -2.972,-5.115 -4.677,-11.047 -4.677,-17.382 0,-11.984 6.098,-22.572 15.369,-28.766 -5.662,0.175 -10.989,1.741 -15.652,4.324 l 0,-0.434 c 0,-16.743 11.917,-30.714 27.722,-33.889 -2.898,-0.785 -5.959,-1.218 -9.109,-1.218 -2.22,0 -4.393,0.223 -6.497,0.626 4.395,-13.734 17.157,-23.718 32.279,-24.005 -11.821,-9.27 -26.722,-14.794 -42.924,-14.794 -2.785,0 -5.536,0.167 -8.238,0.482 15.293,-9.796 33.459,-15.519 52.986,-15.519 63.566,0 98.328,52.653 98.328,98.33 0,1.492 -0.042,2.984 -0.095,4.476 C -10.497,-13.021 -4.644,-6.932 0,0" /></g><g
           transform="translate(202.5348,499.3821)"
           id="g54"><path
             id="path56"
             style="fill:#f21955;fill-opacity:1;fill-rule:nonzero;stroke:none"
             d="m 0,0 c 6.236,0.232 11.431,2.479 15.584,6.725 2.01,3.006 3.3,6.093 3.869,9.258 0.34,3.17 0.522,5.823 0.522,7.991 0,9.335 -2.392,18.757 -7.168,28.246 -2.247,4.55 -5.193,8.261 -8.849,11.113 -3.737,2.693 -8.03,4.125 -12.876,4.28 -6.424,-0.155 -11.756,-2.742 -16.013,-7.757 -3.593,-5.25 -5.306,-11.116 -5.143,-17.6 0,-8.566 2.495,-17.472 7.512,-26.742 2.433,-4.317 5.556,-7.982 9.404,-10.992 C -9.322,1.504 -4.937,0 0,0 m 33.022,-69.433 c 0,6.014 -1.958,11.249 -5.876,15.712 -4.155,4.238 -10.638,9.438 -19.462,15.609 -1.515,0.155 -3.284,0.228 -5.317,0.228 -1.205,0.148 -4.301,0 -9.278,-0.46 -4.9,-0.696 -9.919,-1.811 -15.05,-3.352 -1.206,-0.463 -2.898,-1.161 -5.083,-2.086 -2.189,-0.999 -4.413,-2.427 -6.682,-4.274 -2.189,-1.924 -4.032,-4.312 -5.538,-7.167 -1.742,-3.006 -2.599,-6.629 -2.599,-10.864 0,-8.321 3.76,-15.178 11.301,-20.568 7.172,-5.392 16.971,-8.165 29.416,-8.324 11.165,0.159 19.692,2.622 25.563,7.399 5.741,4.705 8.605,10.749 8.605,18.147 m -9.146,136.35 c 1.496,-0.922 3.16,-2.269 5.019,-4.04 1.782,-1.851 3.529,-4.132 5.24,-6.819 1.638,-2.544 3.092,-5.541 4.359,-9.013 1.042,-3.462 1.561,-7.512 1.561,-12.133 C 39.918,26.441 38.043,19.663 34.44,14.575 32.678,12.11 30.808,9.839 28.833,7.758 26.641,5.686 24.316,3.561 21.852,1.404 c -1.414,-1.46 -2.716,-3.118 -3.915,-4.969 -1.41,-1.927 -2.118,-4.155 -2.118,-6.695 0,-2.481 0.724,-4.514 2.173,-6.13 1.228,-1.543 2.424,-2.891 3.586,-4.049 l 8.037,-6.581 c 4.99,-4.095 9.369,-8.583 13.132,-13.515 3.544,-5.013 5.39,-11.556 5.546,-19.64 0,-11.481 -5.074,-21.642 -15.209,-30.513 -10.499,-9.169 -25.673,-13.898 -45.493,-14.21 -16.591,0.153 -28.977,3.693 -37.162,10.605 -8.25,6.463 -12.386,14.188 -12.386,23.185 0,4.376 1.338,9.268 4.039,14.651 2.597,5.374 7.317,10.105 14.154,14.179 7.661,4.373 15.724,7.304 24.17,8.766 8.364,1.223 15.304,1.919 20.831,2.073 -1.71,2.252 -3.228,4.647 -4.567,7.205 -1.559,2.475 -2.331,5.463 -2.331,8.938 0,2.09 0.291,3.847 0.883,5.232 0.521,1.476 1.007,2.823 1.448,4.066 -2.685,-0.306 -5.229,-0.462 -7.604,-0.462 -12.618,0.156 -22.227,4.126 -28.837,11.899 -6.928,7.25 -10.392,15.681 -10.392,25.306 0,11.637 4.899,22.18 14.714,31.662 6.731,5.539 13.728,9.152 20.984,10.86 7.187,1.462 13.922,2.193 20.202,2.193 l 47.37,0 -14.628,-8.543 -14.603,0 z" /></g><g
           transform="translate(319.8156,548.97)"
           id="g58"><path
             id="path60"
             style="fill:#f21955;fill-opacity:1;fill-rule:nonzero;stroke:none"
             d="m 0,0 -24.852,0 0,24.858 -12.043,0 0,-24.858 -24.85,0 0,-12.042 24.85,0 0,-24.851 12.043,0 0,24.851 24.852,0 L 0,0 Z" /></g><g
           transform="translate(191.7111,510.2058)"
           id="g62"><path
             id="path64"
             style="fill:none;stroke:#000000;stroke-width:5;stroke-linecap:round;stroke-linejoin:round;stroke-miterlimit:10;stroke-dasharray:none;stroke-opacity:1"
             d="m 0,0 c 6.236,0.232 11.431,2.479 15.585,6.725 2.009,3.007 3.299,6.093 3.868,9.258 0.341,3.17 0.522,5.824 0.522,7.992 0,9.334 -2.392,18.756 -7.168,28.245 -2.247,4.55 -5.193,8.261 -8.849,11.113 -3.737,2.692 -8.03,4.125 -12.876,4.28 -6.424,-0.155 -11.756,-2.742 -16.013,-7.756 -3.593,-5.251 -5.306,-11.117 -5.143,-17.601 0,-8.566 2.495,-17.472 7.512,-26.742 2.433,-4.318 5.556,-7.982 9.404,-10.991 C -9.322,1.504 -4.937,0 0,0 m 33.022,-69.433 c 0,6.014 -1.958,11.249 -5.876,15.711 -4.155,4.239 -10.638,9.439 -19.461,15.61 -1.516,0.155 -3.284,0.228 -5.318,0.228 -1.205,0.148 -4.301,0 -9.278,-0.46 -4.9,-0.696 -9.919,-1.811 -15.05,-3.352 -1.206,-0.463 -2.898,-1.16 -5.083,-2.086 -2.189,-0.999 -4.412,-2.427 -6.682,-4.274 -2.189,-1.924 -4.032,-4.313 -5.538,-7.167 -1.742,-3.006 -2.599,-6.629 -2.599,-10.864 0,-8.321 3.761,-15.178 11.301,-20.569 7.172,-5.391 16.971,-8.164 29.416,-8.323 11.165,0.159 19.692,2.622 25.563,7.399 5.742,4.705 8.605,10.749 8.605,18.147 m -9.146,136.35 c 1.496,-0.922 3.16,-2.269 5.019,-4.04 1.783,-1.851 3.529,-4.132 5.24,-6.819 1.639,-2.544 3.092,-5.541 4.359,-9.013 1.042,-3.462 1.561,-7.512 1.561,-12.133 C 39.918,26.441 38.044,19.663 34.44,14.575 32.678,12.11 30.808,9.839 28.834,7.758 26.641,5.686 24.316,3.561 21.852,1.404 c -1.414,-1.46 -2.716,-3.118 -3.916,-4.97 -1.408,-1.926 -2.117,-4.154 -2.117,-6.694 0,-2.481 0.724,-4.514 2.173,-6.13 1.228,-1.543 2.425,-2.891 3.586,-4.049 l 8.038,-6.581 c 4.989,-4.095 9.368,-8.583 13.131,-13.515 3.544,-5.013 5.39,-11.556 5.547,-19.64 0,-11.481 -5.075,-21.642 -15.21,-30.513 -10.499,-9.168 -25.673,-13.898 -45.493,-14.211 -16.592,0.154 -28.977,3.694 -37.162,10.605 -8.249,6.464 -12.385,14.189 -12.385,23.186 0,4.377 1.337,9.267 4.038,14.651 2.597,5.374 7.317,10.105 14.154,14.179 7.662,4.373 15.724,7.304 24.17,8.766 8.364,1.223 15.304,1.919 20.831,2.073 -1.709,2.252 -3.228,4.647 -4.567,7.205 -1.559,2.475 -2.331,5.463 -2.331,8.938 0,2.09 0.291,3.847 0.883,5.232 0.521,1.476 1.007,2.822 1.448,4.066 -2.685,-0.306 -5.229,-0.462 -7.604,-0.462 -12.618,0.156 -22.227,4.126 -28.837,11.9 -6.928,7.25 -10.392,15.68 -10.392,25.305 0,11.637 4.9,22.18 14.714,31.662 6.731,5.539 13.728,9.152 20.984,10.86 7.187,1.462 13.922,2.193 20.202,2.193 l 47.37,0 -14.628,-8.543 -14.603,0 z" /></g><g
           transform="translate(308.9919,559.7937)"
           id="g66"><path
             id="path68"
             style="fill:none;stroke:#000000;stroke-width:5;stroke-linecap:round;stroke-linejoin:round;stroke-miterlimit:10;stroke-dasharray:none;stroke-opacity:1"
             d="m 0,0 -24.852,0 0,24.858 -12.043,0 0,-24.858 -24.85,0 0,-12.042 24.85,0 0,-24.851 12.043,0 0,24.851 24.852,0 L 0,0 Z" /></g><g
           transform="translate(480.7531,586.3976)"
           id="g70"><path
             id="path72"
             style="fill:#005674;fill-opacity:1;fill-rule:nonzero;stroke:none"
             d="m 0,0 c 11.399,0 20.642,-9.253 20.642,-20.633 0,-11.394 -9.243,-20.645 -20.642,-20.645 -11.438,0 -20.663,9.251 -20.663,20.645 C -20.663,-9.253 -11.438,0 0,0 m -17.836,-56.938 35.651,0 0,-114.533 -35.651,0 0,114.533 z" /></g><g
           transform="translate(520.9191,529.4591)"
           id="g74"><path
             id="path76"
             style="fill:#005674;fill-opacity:1;fill-rule:nonzero;stroke:none"
             d="m 0,0 34.141,0 0,-15.652 0.486,0 c 4.747,9.009 16.375,18.5 33.704,18.5 36.041,0 42.707,-23.711 42.707,-54.558 l 0,-62.823 -35.588,0 0,55.685 c 0,13.295 -0.26,30.381 -18.512,30.381 -18.54,0 -21.364,-14.468 -21.364,-29.401 l 0,-56.665 -35.574,0 L 0,0 Z" /></g><g
           transform="translate(469.9299,597.2213)"
           id="g78"><path
             id="path80"
             style="fill:none;stroke:#000000;stroke-width:5;stroke-linecap:round;stroke-linejoin:round;stroke-miterlimit:10;stroke-dasharray:none;stroke-opacity:1"
             d="m 0,0 c 11.398,0 20.641,-9.253 20.641,-20.633 0,-11.394 -9.243,-20.646 -20.641,-20.646 -11.438,0 -20.664,9.252 -20.664,20.646 C -20.664,-9.253 -11.438,0 0,0 m -17.837,-56.938 35.651,0 0,-114.534 -35.651,0 0,114.534 z" /></g><g
           transform="translate(510.0954,540.2828)"
           id="g82"><path
             id="path84"
             style="fill:none;stroke:#000000;stroke-width:5;stroke-linecap:round;stroke-linejoin:round;stroke-miterlimit:10;stroke-dasharray:none;stroke-opacity:1"
             d="m 0,0 34.141,0 0,-15.652 0.485,0 c 4.748,9.009 16.376,18.5 33.705,18.5 36.041,0 42.707,-23.711 42.707,-54.558 l 0,-62.824 -35.588,0 0,55.686 c 0,13.295 -0.261,30.381 -18.513,30.381 -18.539,0 -21.363,-14.468 -21.363,-29.401 l 0,-56.666 -35.574,0 L 0,0 Z" /></g><g
           transform="translate(1218.7585,446.3108)"
           id="g86"><path
             id="path88"
             style="fill:#0595dc;fill-opacity:1;fill-rule:nonzero;stroke:none"
             d="m 0,0 c -3.618,-5.135 -8.979,-9.192 -15.931,-12.081 -6.869,-2.857 -15.107,-4.313 -24.49,-4.313 -11.266,0 -20.703,1.983 -28.074,5.889 -5.271,2.843 -9.607,6.691 -12.909,11.469 -3.327,4.794 -5.012,9.559 -5.012,14.166 0,2.856 1.101,5.349 3.265,7.391 2.145,2.027 4.897,3.046 8.182,3.046 2.698,0 5.022,-0.8 6.91,-2.398 1.802,-1.536 3.345,-3.803 4.595,-6.719 1.391,-3.191 2.903,-5.869 4.497,-7.975 1.543,-2.047 3.757,-3.754 6.578,-5.097 2.84,-1.341 6.677,-2.026 11.387,-2.026 6.479,0 11.797,1.385 15.795,4.115 3.906,2.661 5.8,5.87 5.8,9.784 0,3.087 -0.991,5.522 -3.027,7.436 -2.136,1.993 -4.95,3.541 -8.366,4.616 -3.564,1.104 -8.4,2.314 -14.381,3.568 -8.142,1.737 -15.051,3.805 -20.55,6.143 -5.621,2.389 -10.152,5.712 -13.464,9.855 -3.365,4.219 -5.074,9.504 -5.074,15.723 0,5.919 1.787,11.258 5.321,15.856 3.503,4.577 8.63,8.146 15.221,10.57 6.508,2.407 14.243,3.626 23.003,3.626 6.998,0 13.15,-0.812 18.29,-2.41 5.172,-1.602 9.524,-3.772 12.949,-6.453 3.446,-2.699 6.017,-5.567 7.627,-8.571 1.625,-3.02 2.449,-6.03 2.449,-8.937 0,-2.803 -1.081,-5.352 -3.219,-7.569 -2.147,-2.236 -4.854,-3.369 -8.05,-3.369 -2.901,0 -5.179,0.716 -6.749,2.104 -1.466,1.302 -2.99,3.332 -4.681,6.238 -1.953,3.709 -4.32,6.636 -7.036,8.703 -2.637,2.009 -7.039,3.019 -13.093,3.019 -5.612,0 -10.187,-1.124 -13.58,-3.36 -3.271,-2.132 -4.863,-4.598 -4.863,-7.515 0,-1.782 0.515,-3.272 1.573,-4.554 1.11,-1.372 2.684,-2.549 4.666,-3.552 2.061,-1.036 4.193,-1.865 6.314,-2.452 2.175,-0.604 5.831,-1.502 10.844,-2.661 6.348,-1.361 12.18,-2.891 17.332,-4.539 5.223,-1.673 9.733,-3.719 13.417,-6.126 3.753,-2.444 6.722,-5.577 8.832,-9.325 2.119,-3.774 3.19,-8.418 3.19,-13.819 C 5.488,11.044 3.64,5.154 0,0 m 36.377,20.651 c 1.186,5.426 1.808,11.053 1.808,16.827 0,43.301 -35.092,78.411 -78.396,78.411 -4.564,0 -9.04,-0.398 -13.405,-1.153 -7.002,4.418 -15.29,6.984 -24.182,6.984 -25.116,0 -45.467,-20.356 -45.467,-45.481 0,-8.389 2.283,-16.243 6.248,-22.997 -1.042,-5.088 -1.587,-10.366 -1.587,-15.764 0,-43.308 35.096,-78.411 78.393,-78.411 4.909,0 9.702,0.456 14.357,1.315 6.41,-3.447 13.716,-5.399 21.497,-5.399 25.105,0 45.459,20.357 45.459,45.47 0,7.257 -1.705,14.11 -4.725,20.198" /></g><g
           transform="translate(1207.9357,457.1345)"
           id="g90"><path
             id="path92"
             style="fill:none;stroke:#000000;stroke-width:5;stroke-linecap:round;stroke-linejoin:round;stroke-miterlimit:10;stroke-dasharray:none;stroke-opacity:1"
             d="m 0,0 c -3.619,-5.135 -8.98,-9.192 -15.932,-12.081 -6.869,-2.857 -15.107,-4.313 -24.489,-4.313 -11.266,0 -20.704,1.983 -28.075,5.889 -5.271,2.843 -9.607,6.691 -12.909,11.469 -3.326,4.794 -5.012,9.559 -5.012,14.166 0,2.856 1.101,5.349 3.265,7.39 2.145,2.028 4.897,3.047 8.182,3.047 2.698,0 5.022,-0.801 6.911,-2.398 1.801,-1.536 3.344,-3.803 4.594,-6.719 1.392,-3.191 2.903,-5.869 4.498,-7.975 1.542,-2.047 3.756,-3.755 6.577,-5.097 2.84,-1.341 6.677,-2.026 11.388,-2.026 6.479,0 11.796,1.385 15.794,4.115 3.906,2.661 5.8,5.87 5.8,9.783 0,3.088 -0.99,5.523 -3.026,7.437 -2.137,1.993 -4.951,3.541 -8.367,4.616 -3.564,1.104 -8.4,2.314 -14.381,3.568 -8.142,1.737 -15.051,3.804 -20.549,6.143 -5.622,2.389 -10.153,5.712 -13.464,9.855 -3.366,4.219 -5.075,9.504 -5.075,15.723 0,5.919 1.788,11.258 5.322,15.856 3.502,4.577 8.629,8.146 15.22,10.57 6.508,2.407 14.243,3.626 23.003,3.626 6.999,0 13.15,-0.813 18.291,-2.41 5.171,-1.602 9.523,-3.772 12.948,-6.453 3.446,-2.699 6.017,-5.567 7.627,-8.571 1.625,-3.02 2.449,-6.03 2.449,-8.938 0,-2.802 -1.081,-5.351 -3.219,-7.568 -2.147,-2.237 -4.853,-3.369 -8.05,-3.369 -2.901,0 -5.178,0.716 -6.749,2.105 -1.465,1.301 -2.99,3.331 -4.681,6.237 -1.953,3.709 -4.32,6.636 -7.036,8.703 -2.637,2.009 -7.039,3.019 -13.093,3.019 -5.612,0 -10.187,-1.124 -13.58,-3.36 -3.271,-2.132 -4.863,-4.598 -4.863,-7.515 0,-1.782 0.515,-3.272 1.573,-4.554 1.11,-1.372 2.684,-2.549 4.666,-3.552 2.061,-1.036 4.193,-1.865 6.314,-2.452 2.175,-0.604 5.831,-1.502 10.844,-2.661 6.348,-1.361 12.18,-2.891 17.332,-4.539 5.223,-1.673 9.733,-3.719 13.417,-6.126 3.753,-2.445 6.722,-5.577 8.832,-9.325 2.119,-3.774 3.19,-8.418 3.19,-13.819 C 5.487,11.044 3.639,5.153 0,0 m 36.376,20.651 c 1.186,5.426 1.81,11.052 1.81,16.827 0,43.301 -35.094,78.411 -78.398,78.411 -4.564,0 -9.04,-0.398 -13.405,-1.153 -7.002,4.418 -15.29,6.984 -24.182,6.984 -25.116,0 -45.467,-20.356 -45.467,-45.481 0,-8.389 2.283,-16.244 6.249,-22.997 -1.042,-5.088 -1.588,-10.366 -1.588,-15.764 0,-43.308 35.096,-78.411 78.393,-78.411 4.909,0 9.702,0.456 14.358,1.315 6.41,-3.447 13.715,-5.4 21.496,-5.4 25.105,0 45.46,20.358 45.46,45.471 0,7.257 -1.706,14.108 -4.726,20.198" /></g><g
           transform="translate(953.9772,440.7805)"
           id="g94"><path
             id="path96"
             style="fill:#e12d2e;fill-opacity:1;fill-rule:nonzero;stroke:none"
             d="m 0,0 0,65.528 c 0,0 0,31.588 -31.586,31.588 l -120.093,0 c 0,0 -31.565,0 -31.565,-31.588 l 0,-65.528 c 0,0 0,-31.586 31.565,-31.586 l 120.093,0 c 0,0 31.586,0 31.586,31.586 m -56.048,32.67 -59.993,-35.235 0,70.48 59.993,-35.245 z" /></g><g
           transform="translate(942.1456,452.6121)"
           id="g98"><path
             id="path100"
             style="fill:none;stroke:#000000;stroke-width:5;stroke-linecap:round;stroke-linejoin:round;stroke-miterlimit:10;stroke-dasharray:none;stroke-opacity:1"
             d="m 0,0 0,65.529 c 0,0 0,31.587 -31.588,31.587 l -120.092,0 c 0,0 -31.564,0 -31.564,-31.587 l 0,-65.529 c 0,0 0,-31.586 31.564,-31.586 l 120.092,0 c 0,0 31.588,0 31.588,31.586 m -56.05,32.671 -59.992,-35.237 0,70.481 59.992,-35.244 z" /></g><g
           transform="translate(862.0075,242.1936)"
           id="g102"><path
             id="path104"
             style="fill:#007f90;fill-opacity:1;fill-rule:nonzero;stroke:none"
             d="m 0,0 c -18.452,0 -33.419,-14.493 -33.419,-32.391 0,-17.879 14.967,-32.382 33.419,-32.382 18.462,0 33.429,14.503 33.429,32.382 C 33.429,-14.493 18.462,0 0,0 m 64.243,-19.908 -14.643,0 c 1.39,-4.538 2.138,-9.319 2.138,-14.292 0,-27.672 -23.166,-50.117 -51.738,-50.117 -28.562,0 -51.733,22.445 -51.733,50.117 0,4.973 0.758,9.754 2.138,14.292 l -15.273,0 0,-70.309 c 0,-3.639 2.971,-6.601 6.609,-6.601 l 115.891,0 c 3.645,0 6.611,2.962 6.611,6.601 l 0,70.309 z m -26.372,51.89 c -4.129,0 -7.494,-3.377 -7.494,-7.501 l 0,-17.926 c 0,-4.126 3.365,-7.499 7.494,-7.499 l 18.809,0 c 4.121,0 7.494,3.373 7.494,7.499 l 0,17.926 c 0,4.124 -3.373,7.501 -7.494,7.501 l -18.809,0 z M -62,50.468 l 123.699,0 c 11.752,0 21.359,-9.613 21.359,-21.364 l 0,-123.701 c 0,-11.75 -9.607,-21.353 -21.359,-21.353 l -123.699,0 c -11.754,0 -21.371,9.603 -21.371,21.353 l 0,123.701 c 0,11.751 9.617,21.364 21.371,21.364" /></g><g
           transform="translate(851.1838,253.0173)"
           id="g106"><path
             id="path108"
             style="fill:none;stroke:#000000;stroke-width:5;stroke-linecap:round;stroke-linejoin:round;stroke-miterlimit:10;stroke-dasharray:none;stroke-opacity:1"
             d="m 0,0 c -18.451,0 -33.419,-14.493 -33.419,-32.391 0,-17.88 14.968,-32.383 33.419,-32.383 18.462,0 33.429,14.503 33.429,32.383 C 33.429,-14.493 18.462,0 0,0 m 64.243,-19.908 -14.643,0 c 1.39,-4.538 2.138,-9.32 2.138,-14.292 0,-27.672 -23.166,-50.117 -51.738,-50.117 -28.562,0 -51.733,22.445 -51.733,50.117 0,4.972 0.758,9.754 2.138,14.292 l -15.272,0 0,-70.309 c 0,-3.639 2.97,-6.601 6.608,-6.601 l 115.891,0 c 3.645,0 6.611,2.962 6.611,6.601 l 0,70.309 z m -26.372,51.89 c -4.129,0 -7.494,-3.377 -7.494,-7.502 l 0,-17.925 c 0,-4.126 3.365,-7.499 7.494,-7.499 l 18.809,0 c 4.121,0 7.494,3.373 7.494,7.499 l 0,17.925 c 0,4.125 -3.373,7.502 -7.494,7.502 l -18.809,0 z M -62,50.468 l 123.699,0 c 11.752,0 21.359,-9.613 21.359,-21.364 l 0,-123.701 c 0,-11.75 -9.607,-21.353 -21.359,-21.353 l -123.699,0 c -11.754,0 -21.371,9.603 -21.371,21.353 l 0,123.701 c 0,11.751 9.617,21.364 21.371,21.364" /></g><g
           transform="translate(260.2907,168.7122)"
           id="g110"><path
             id="path112"
             style="fill:#ffab1a;fill-opacity:1;fill-rule:nonzero;stroke:none"
             d="m 0,0 -60.376,0 c -5.665,0 -10.251,4.643 -10.251,10.197 0,5.618 4.586,10.209 10.251,10.209 l 60.376,0 c 5.619,0 10.212,-4.591 10.212,-10.209 C 10.212,4.643 5.619,0 0,0 m -60.376,81.759 29.709,0 c 5.67,0 10.264,-4.603 10.264,-10.211 0,-5.608 -4.594,-10.265 -10.264,-10.265 l -29.709,0 c -5.665,0 -10.251,4.657 -10.251,10.265 0,5.608 4.586,10.211 10.251,10.211 M 53.92,55.102 52.5,58.053 50.124,59.92 C 47,62.358 31.246,59.744 26.995,63.606 23.989,66.384 23.53,71.385 22.621,78.127 20.926,91.22 19.843,91.898 17.805,96.325 10.383,112.09 -9.741,123.942 -23.574,125.589 l -37.472,0 c -29.49,0 -53.573,-24.158 -53.573,-53.645 l 0,-62.54 c 0,-29.424 24.083,-53.512 53.573,-53.512 l 61.569,0 c 29.475,0 53.397,24.088 53.571,53.512 l 0.337,43.32 -0.511,2.378 z" /></g><g
           transform="translate(249.467,179.5349)"
           id="g114"><path
             id="path116"
             style="fill:none;stroke:#000000;stroke-width:5;stroke-linecap:round;stroke-linejoin:round;stroke-miterlimit:10;stroke-dasharray:none;stroke-opacity:1"
             d="m 0,0 -60.376,0 c -5.665,0 -10.251,4.645 -10.251,10.198 0,5.618 4.586,10.209 10.251,10.209 l 60.376,0 c 5.619,0 10.212,-4.591 10.212,-10.209 C 10.212,4.645 5.619,0 0,0 m -60.376,81.76 29.709,0 c 5.67,0 10.264,-4.603 10.264,-10.211 0,-5.609 -4.594,-10.265 -10.264,-10.265 l -29.709,0 c -5.665,0 -10.251,4.656 -10.251,10.265 0,5.608 4.586,10.211 10.251,10.211 M 53.92,55.104 52.5,58.054 50.124,59.921 C 47,62.359 31.246,59.745 26.995,63.607 23.989,66.385 23.53,71.386 22.621,78.128 20.926,91.221 19.843,91.899 17.805,96.326 10.383,112.09 -9.741,123.943 -23.574,125.59 l -37.472,0 c -29.49,0 -53.573,-24.158 -53.573,-53.645 l 0,-62.541 c 0,-29.422 24.083,-53.511 53.573,-53.511 l 61.569,0 c 29.475,0 53.397,24.089 53.571,53.511 l 0.337,43.321 -0.511,2.379 z" /></g><g
           transform="translate(546.028,306.8752)"
           id="g118"><path
             id="path120"
             style="fill:#fc1619;fill-opacity:1;fill-rule:nonzero;stroke:none"
             d="m 0,0 c -53.791,0 -97.41,-43.615 -97.41,-97.418 0,-39.889 23.988,-74.163 58.318,-89.228 -0.283,6.79 -0.052,14.965 1.687,22.372 1.874,7.896 12.528,53.073 12.528,53.073 0,0 -3.108,6.232 -3.108,15.415 0,14.442 8.37,25.227 18.785,25.227 8.861,0 13.143,-6.659 13.143,-14.634 0,-8.904 -5.682,-22.227 -8.601,-34.562 -2.445,-10.338 5.178,-18.76 15.369,-18.76 18.454,0 30.884,23.692 30.884,51.792 0,21.343 -14.38,37.325 -40.526,37.325 -29.549,0 -47.952,-22.036 -47.952,-46.644 0,-8.489 2.498,-14.487 6.414,-19.117 1.806,-2.135 2.05,-2.986 1.405,-5.435 -0.464,-1.779 -1.541,-6.11 -1.985,-7.808 -0.65,-2.472 -2.647,-3.358 -4.874,-2.44 -13.612,5.561 -19.949,20.459 -19.949,37.216 0,27.674 23.328,60.862 69.607,60.862 37.196,0 61.67,-26.926 61.67,-55.804 0,-38.224 -21.244,-66.77 -52.564,-66.77 -10.507,0 -20.403,5.681 -23.784,12.139 0,0 -5.663,-22.44 -6.858,-26.783 -2.058,-7.503 -6.107,-15.008 -9.805,-20.86 8.757,-2.594 18.014,-4.006 27.606,-4.006 53.791,0 97.401,43.627 97.401,97.43 C 97.401,-43.615 53.791,0 0,0" /></g><g
           transform="translate(535.2043,317.699)"
           id="g122"><path
             id="path124"
             style="fill:none;stroke:#000000;stroke-width:5;stroke-linecap:round;stroke-linejoin:round;stroke-miterlimit:10;stroke-dasharray:none;stroke-opacity:1"
             d="m 0,0 c -53.791,0 -97.41,-43.615 -97.41,-97.418 0,-39.889 23.988,-74.163 58.318,-89.228 -0.283,6.79 -0.052,14.965 1.687,22.372 1.875,7.896 12.528,53.073 12.528,53.073 0,0 -3.108,6.232 -3.108,15.415 0,14.442 8.37,25.226 18.785,25.226 8.861,0 13.143,-6.658 13.143,-14.633 0,-8.904 -5.682,-22.227 -8.601,-34.562 -2.445,-10.338 5.178,-18.76 15.369,-18.76 18.454,0 30.884,23.692 30.884,51.791 0,21.344 -14.38,37.326 -40.526,37.326 -29.548,0 -47.952,-22.037 -47.952,-46.644 0,-8.489 2.498,-14.487 6.414,-19.117 1.806,-2.135 2.05,-2.986 1.404,-5.435 -0.463,-1.779 -1.54,-6.11 -1.984,-7.808 -0.649,-2.472 -2.647,-3.358 -4.874,-2.44 -13.612,5.561 -19.949,20.459 -19.949,37.216 0,27.674 23.328,60.862 69.607,60.862 37.196,0 61.67,-26.926 61.67,-55.805 0,-38.223 -21.244,-66.769 -52.564,-66.769 -10.507,0 -20.403,5.681 -23.784,12.138 0,0 -5.663,-22.439 -6.858,-26.782 -2.058,-7.503 -6.107,-15.008 -9.805,-20.86 8.758,-2.595 18.015,-4.006 27.606,-4.006 53.792,0 97.401,43.627 97.401,97.43 C 97.401,-43.615 53.792,0 0,0" /></g><g
           transform="translate(1243.3845,209.3323)"
           id="g126"><path
             id="path128"
             style="fill:#55c4ae;fill-opacity:1;fill-rule:nonzero;stroke:none"
             d="m 0,0 c -2.311,-0.394 -4.631,-0.628 -6.983,-0.676 -9.808,-0.457 -20.016,2.989 -26.75,10.301 -8.058,8.62 -10.654,21.174 -9.326,32.62 0.659,4.671 2.467,9.987 7.126,11.988 4.301,1.969 9.602,-0.281 11.445,-4.552 4.025,-9.104 1.656,-19.32 -0.62,-28.543 4.236,-7.718 14.75,-9.367 22.738,-7.59 5.348,12.9 7.05,27.566 3.692,41.195 -2.26,9.238 -8.656,17.603 -17.664,21.073 -13.17,4.973 -29.664,3.472 -40.054,-6.645 -9.758,-9.426 -12.776,-23.784 -11.737,-36.889 1.037,-19.069 11.128,-38.183 28.436,-47.151 -7.051,-13.895 -15.919,-26.964 -26.947,-38.027 -12.22,14.621 -21.752,31.451 -28.12,49.402 -6.792,18.866 -10.502,38.663 -13.002,58.501 -8.897,0.075 -17.8,0 -26.696,0.024 l 0,-1.06 c 3.997,-28.141 10.236,-56.285 22.175,-82.2 7.402,-15.885 16.83,-31.249 30.141,-42.894 4.24,-3.511 9.046,-7.375 14.867,-7.203 6.499,0.362 11.303,5.242 15.859,9.323 14.547,14.023 26.838,30.497 35.742,48.661 5.225,0.163 10.503,0.619 15.678,1.579 L 0,0 Z" /></g><g
           transform="translate(1232.5607,220.155)"
           id="g130"><path
             id="path132"
             style="fill:none;stroke:#000000;stroke-width:5;stroke-linecap:round;stroke-linejoin:round;stroke-miterlimit:10;stroke-dasharray:none;stroke-opacity:1"
             d="m 0,0 c -2.311,-0.393 -4.631,-0.627 -6.982,-0.675 -9.809,-0.457 -20.017,2.989 -26.751,10.301 -8.057,8.62 -10.654,21.174 -9.326,32.62 0.659,4.671 2.467,9.987 7.126,11.988 4.301,1.969 9.602,-0.281 11.445,-4.552 4.025,-9.104 1.656,-19.32 -0.619,-28.543 4.235,-7.718 14.749,-9.367 22.737,-7.59 5.348,12.9 7.05,27.566 3.692,41.195 -2.26,9.238 -8.656,17.603 -17.664,21.073 -13.17,4.973 -29.664,3.472 -40.054,-6.645 -9.758,-9.426 -12.775,-23.784 -11.737,-36.889 1.037,-19.069 11.128,-38.183 28.436,-47.151 -7.051,-13.895 -15.919,-26.964 -26.946,-38.028 -12.221,14.622 -21.753,31.452 -28.121,49.403 -6.792,18.866 -10.502,38.663 -13.002,58.501 -8.897,0.075 -17.8,0 -26.696,0.024 l 0,-1.06 c 3.997,-28.141 10.236,-56.286 22.175,-82.201 7.402,-15.884 16.83,-31.248 30.141,-42.893 4.24,-3.511 9.046,-7.375 14.867,-7.203 6.499,0.362 11.303,5.242 15.859,9.323 14.547,14.023 26.838,30.497 35.742,48.661 5.225,0.163 10.503,0.619 15.678,1.579 L 0,0 Z" /></g></g></g></g></svg>